<?xml version="1.0" encoding="UTF-8"?>
<svg version="1.1" viewBox="0 0 781.08 1030.5" xmlns="http://www.w3.org/2000/svg">
 <g transform="translate(27.918 -24.133)">
  <g stroke="#000">
   <path transform="matrix(2.1777 0 0 2.1777 8.2082 -877.59)" d="m210.81 574.7c0 45.739-37.078 82.817-82.817 82.817s-82.817-37.078-82.817-82.817 37.078-82.817 82.817-82.817 82.817 37.078 82.817 82.817z" stroke-linecap="round" stroke-width="2"/>
   <path transform="matrix(1.1357 0 0 1.1357 -109.53 37.964)" d="m742.84 564.66c0 173.25-140.45 313.7-313.7 313.7s-313.7-140.45-313.7-313.7 140.45-313.7 313.7-313.7 313.7 140.45 313.7 313.7z" fill="#1a1a1a" stroke-linecap="round" stroke-width="1.761"/>
   <path d="m436 1030.8c-194.13 32.1-377.54-99.27-409.64-293.4-32.107-194.13 99.24-377.53 293.37-409.64 194.13-32.1 377.53 99.24 409.64 293.37 28.46 172.09-71.85 339.47-237.02 395.47l-211.37-678.45z" fill="#d40000" stroke-linecap="round" stroke-width="2"/>
   <path transform="translate(65.25 -8.3654)" d="m210.81 574.7c0 45.739-37.078 82.817-82.817 82.817s-82.817-37.078-82.817-82.817 37.078-82.817 82.817-82.817 82.817 37.078 82.817 82.817z" stroke-linecap="round" stroke-width="2"/>
   <path transform="translate(103.73 271.04)" d="m210.81 574.7c0 45.739-37.078 82.817-82.817 82.817s-82.817-37.078-82.817-82.817 37.078-82.817 82.817-82.817 82.817 37.078 82.817 82.817z" stroke-linecap="round" stroke-width="2"/>
   <path transform="translate(348 -73.615)" d="m210.81 574.7c0 45.739-37.078 82.817-82.817 82.817s-82.817-37.078-82.817-82.817 37.078-82.817 82.817-82.817 82.817 37.078 82.817 82.817z" stroke-linecap="round" stroke-width="2"/>
   <path transform="translate(456.75 199.1)" d="m210.81 574.7c0 45.739-37.078 82.817-82.817 82.817s-82.817-37.078-82.817-82.817 37.078-82.817 82.817-82.817 82.817 37.078 82.817 82.817z" stroke-linecap="round" stroke-width="2"/>
   <path transform="translate(-110.42 -18.404)" d="m162.29 240.92c0.22736 0.18657-0.39939 0.55506-0.47687 0.58111-1.808 0.60804-2.8508-1.9578-2.8333-3.2975 0.0691-5.2785 6.5388-7.3015 10.826-6.4424 10.863 2.1768 14.297 15.306 11.339 24.632-5.9894 18.884-29.155 24.204-45.946 17.539-29.642-11.766-37.35-48.849-25.08-75.824 19.744-43.405 75.063-54.033 115.21-34.005 34.778 17.351 56.583 53.611 59.821 91.843" fill="none" stroke-width="8"/>
   <path transform="matrix(-.72843 .68512 .68512 .72843 344.41 -168.28)" d="m162.29 240.92c0.22736 0.18657-0.39939 0.55506-0.47687 0.58111-1.808 0.60804-2.8508-1.9578-2.8333-3.2975 0.0691-5.2785 6.5388-7.3015 10.826-6.4424 10.863 2.1768 14.297 15.306 11.339 24.632-5.9894 18.884-29.155 24.204-45.946 17.539-29.642-11.766-37.35-48.849-25.08-75.824 19.744-43.405 75.063-54.033 115.21-34.005 34.778 17.351 56.583 53.611 59.821 91.843" fill="none" stroke-width="8"/>
  </g>
 </g>
</svg>
